<svg xmlns="http://www.w3.org/2000/svg" version="1.1" xmlns:xlink="http://www.w3.org/1999/xlink" xmlns:svgjs="http://svgjs.dev/svgjs" width="32" height="32"><svg xmlns="http://www.w3.org/2000/svg" viewBox="0 -0.5 32 32" shape-rendering="crispEdges">
<metadata>Made with Pixels to Svg https://codepen.io/shshaw/pen/XbxvNj</metadata>
<path stroke="#848484" d="M7 0h21M6 1h1M27 1h1M5 2h1M26 2h2M4 3h1M25 3h3M3 4h1M25 4h3M3 5h1M6 5h17M25 5h3M3 6h1M25 6h3M3 7h1M25 7h3M3 8h1M25 8h3M3 9h1M25 9h3M3 10h1M10 10h1M25 10h3M3 11h1M10 11h1M25 11h3M3 12h1M10 12h1M13 12h1M25 12h3M3 13h1M13 13h1M25 13h3M3 14h1M13 14h1M25 14h3M3 15h1M25 15h3M3 16h1M25 16h3M3 17h1M25 17h3M3 18h1M25 18h3M3 19h1M25 19h2M28 19h3M3 20h23M27 20h2M30 20h1M26 21h2M29 21h2M1 22h26M28 22h3M0 23h1M27 23h4M0 24h1M27 24h4M0 25h1M15 25h10M27 25h4M0 26h1M27 26h4M0 27h1M21 27h1M27 27h4M0 28h1M27 28h3M0 29h1M27 29h2M0 30h28" data-darkreader-inline-stroke="" style="--darkreader-inline-stroke: var(--darkreader-text-848484, #9a9284);"></path>
<path stroke="#c6c6c6" d="M7 1h19M6 2h19M5 4h20M5 5h1M24 5h1M5 6h1M24 6h1M5 7h1M24 7h1M5 8h1M24 8h1M5 9h1M24 9h1M5 10h1M24 10h1M5 11h1M24 11h1M5 12h1M24 12h1M5 13h1M24 13h1M5 14h1M24 14h1M5 15h1M24 15h1M5 16h1M24 16h1M5 17h1M24 17h1M5 18h1M24 18h1M5 19h20M29 20h1M28 21h1M27 22h1M2 24h25M2 25h13M25 25h2M2 26h2M6 26h9M26 26h1M2 27h2M6 27h15M22 27h5M2 28h25M2 29h25" data-darkreader-inline-stroke="" style="--darkreader-inline-stroke: var(--darkreader-text-c6c6c6, #c4bfb7);"></path>
<path stroke="#ffffff" d="M26 1h1M25 2h1M5 3h20M4 4h1M4 5h1M23 5h1M4 6h1M23 6h1M4 7h1M23 7h1M4 8h1M23 8h1M4 9h1M23 9h1M4 10h1M11 10h5M23 10h1M4 11h1M11 11h2M23 11h1M4 12h1M11 12h2M14 12h5M23 12h1M4 13h1M14 13h5M23 13h1M4 14h1M14 14h5M23 14h1M4 15h1M23 15h1M4 16h1M23 16h1M4 17h1M23 17h1M4 18h1M6 18h18M4 19h1M1 23h26M1 24h1M1 25h1M1 26h1M1 27h1M1 28h1M1 29h1" data-darkreader-inline-stroke="" style="--darkreader-inline-stroke: var(--darkreader-text-ffffff, #e8e6e3);"></path>
<path stroke="#000000" d="M28 1h1M28 2h1M28 3h1M28 4h1M28 5h1M6 6h16M28 6h1M6 7h1M28 7h1M6 8h1M28 8h1M6 9h1M10 9h7M28 9h1M6 10h1M28 10h1M6 11h1M19 11h1M28 11h1M6 12h1M19 12h1M28 12h1M6 13h1M10 13h3M19 13h1M28 13h1M6 14h1M19 14h1M28 14h1M6 15h1M13 15h7M28 15h1M6 16h1M28 16h1M28 17h1M28 18h1M27 19h1M26 20h1M31 20h1M3 21h23M31 21h1M31 22h1M31 23h1M31 24h1M31 25h1M15 26h10M31 26h1M31 27h1M30 28h1M29 29h1M28 30h1M1 31h27" data-darkreader-inline-stroke="" style="--darkreader-inline-stroke: var(--darkreader-text-000000, #e8e6e3);"></path>
<path stroke="#000084" d="M22 6h1M22 7h1M22 8h1M22 9h1M22 10h1M13 11h6M22 11h1M22 12h1M22 13h1M22 14h1M22 15h1M22 16h1M6 17h17" data-darkreader-inline-stroke="" style="--darkreader-inline-stroke: var(--darkreader-text-000084, #7dacff);"></path>
<path stroke="#0000ff" d="M7 7h15M7 8h1M9 8h13M7 9h1M9 9h1M17 9h5M7 10h3M17 10h5M7 11h3M20 11h2M7 12h3M20 12h2M7 13h3M20 13h2M7 14h6M20 14h2M7 15h6M20 15h2M7 16h15" data-darkreader-inline-stroke="" style="--darkreader-inline-stroke: var(--darkreader-text-0000ff, #337dff);"></path>
<path stroke="#00ffff" d="M8 8h1M8 9h1" data-darkreader-inline-stroke="" style="--darkreader-inline-stroke: var(--darkreader-text-00ffff, #1affff);"></path>
<path stroke="#010101" d="M16 10h1" data-darkreader-inline-stroke="" style="--darkreader-inline-stroke: var(--darkreader-text-010101, #e7e5e2);"></path>
<path stroke="#00ff00" d="M4 26h2" data-darkreader-inline-stroke="" style="--darkreader-inline-stroke: var(--darkreader-text-00ff00, #1aff1a);"></path>
<path stroke="#c5c5c5" d="M25 26h1" data-darkreader-inline-stroke="" style="--darkreader-inline-stroke: var(--darkreader-text-c5c5c5, #c3beb6);"></path>
<path stroke="#008400" d="M4 27h2" data-darkreader-inline-stroke="" style="--darkreader-inline-stroke: var(--darkreader-text-008400, #70ff70);"></path>
</svg><style>@media (prefers-color-scheme: light) { :root { filter: none; } }
@media (prefers-color-scheme: dark) { :root { filter: none; } }
</style></svg>