<?xml version="1.0" standalone="no"?>
<!DOCTYPE svg PUBLIC "-//W3C//DTD SVG 20010904//EN"
 "http://www.w3.org/TR/2001/REC-SVG-20010904/DTD/svg10.dtd">
<svg version="1.0" xmlns="http://www.w3.org/2000/svg"
 width="1200.000000pt" height="1200.000000pt" viewBox="0 0 1200.000000 1200.000000"
 preserveAspectRatio="xMidYMid meet">
<metadata>
Created by potrace 1.14, written by Peter Selinger 2001-2017
</metadata>
<g transform="translate(0.000000,1200.000000) scale(0.100000,-0.100000)"
fill="#000000" stroke="none">
<path d="M3167 11284 c4 -11 8 -12 13 -4 5 8 9 7 13 -4 4 -9 1 -16 -6 -16 -21
0 -21 -67 0 -79 17 -10 17 -10 0 -11 -10 0 -16 -4 -12 -9 3 -5 1 -12 -3 -15
-11 -7 -3 -56 9 -56 5 0 9 -7 9 -15 0 -8 -7 -15 -15 -15 -12 0 -13 -4 -6 -18
19 -35 -3 -50 -74 -49 -36 0 -67 -2 -71 -5 -3 -4 -19 -2 -35 2 -20 6 -29 5
-29 -3 0 -8 -3 -8 -8 -2 -14 20 -119 4 -107 -16 4 -5 0 -9 -7 -9 -10 0 -10 -2
1 -9 8 -5 15 -25 16 -45 2 -20 -1 -34 -5 -31 -4 3 -13 -2 -20 -10 -11 -13 -10
-14 4 -9 14 6 19 -4 15 -32 0 -4 5 -11 13 -15 10 -7 10 -9 0 -9 -7 0 -10 -4
-7 -10 3 -5 0 -10 -8 -10 -7 0 -14 -7 -14 -15 0 -8 6 -15 12 -15 6 0 12 -14
12 -30 0 -24 -6 -32 -24 -36 -12 -4 -23 -14 -23 -23 0 -14 -2 -14 -10 -1 -5 8
-10 11 -10 6 0 -6 -5 -5 -12 2 -9 9 -15 7 -25 -6 -8 -9 -12 -11 -8 -4 4 8 -1
12 -14 12 -12 0 -21 -6 -21 -12 -1 -9 -4 -8 -13 2 -13 17 -42 26 -33 11 4 -5
2 -12 -4 -16 -5 -3 -10 2 -10 11 0 10 -3 14 -7 11 -3 -4 -13 -1 -21 6 -13 9
-14 9 -8 0 13 -23 -6 -38 -21 -18 -7 11 -13 14 -13 8 0 -8 -10 -9 -32 -2 -18
5 -33 9 -33 9 -4 0 4 -62 8 -67 4 -3 2 -12 -4 -20 -9 -9 -8 -13 0 -13 8 0 9
-5 1 -19 -7 -14 -7 -22 0 -26 8 -5 7 -11 -1 -21 -9 -11 -9 -14 0 -14 8 0 9 -5
1 -19 -7 -14 -7 -22 0 -26 8 -5 7 -11 -1 -21 -9 -11 -9 -14 0 -14 8 0 9 -5 1
-19 -6 -13 -7 -22 0 -26 19 -11 -1 -33 -27 -29 -18 3 -23 1 -17 -8 6 -10 4
-10 -7 -2 -17 12 -118 12 -138 0 -9 -6 -12 -5 -8 0 3 6 -22 9 -64 9 -38 -1
-69 -5 -68 -10 0 -4 -5 -12 -13 -16 -7 -5 -8 -9 -2 -9 13 0 13 -118 -1 -139
-5 -8 -4 -12 1 -8 5 3 9 -28 9 -71 0 -48 -4 -77 -12 -79 -6 -2 -14 0 -17 6 -3
5 -15 7 -26 4 -11 -3 -20 0 -20 6 0 8 -4 8 -14 -1 -8 -7 -11 -17 -8 -23 3 -5
-5 -1 -17 10 -22 19 -23 19 -37 0 -12 -17 -19 -14 -15 8 2 15 -28 7 -38 -10
-10 -17 -10 -17 -11 -1 0 9 -5 20 -12 24 -6 4 -8 3 -5 -3 9 -14 -18 -24 -30
-12 -6 6 -20 4 -38 -5 -16 -8 -33 -12 -38 -9 -5 3 -4 -4 3 -16 6 -12 14 -20
18 -17 18 11 5 -50 -13 -62 -18 -12 -18 -13 -1 -7 17 5 17 4 5 -12 -8 -9 -9
-14 -2 -10 7 4 13 0 15 -10 6 -27 -3 -64 -13 -57 -15 9 -10 -16 6 -32 17 -18
20 -38 4 -28 -8 4 -8 0 0 -15 10 -17 9 -21 -4 -21 -8 0 -15 -7 -15 -15 0 -8 6
-15 13 -15 11 0 13 -13 8 -63 -1 -5 -5 -5 -11 -2 -5 3 -10 -3 -10 -15 0 -12 4
-19 8 -16 4 2 14 1 22 -5 10 -6 11 -9 3 -9 -7 0 -13 -10 -13 -23 0 -13 -5 -28
-11 -34 -9 -9 -7 -16 5 -29 14 -14 15 -19 4 -25 -10 -7 -10 -9 2 -9 10 -1 7
-7 -10 -22 -19 -16 -20 -20 -6 -14 17 6 17 5 5 -11 -8 -9 -9 -14 -2 -10 7 4
13 0 15 -10 6 -27 -3 -64 -13 -57 -15 9 -10 -16 6 -32 17 -18 20 -38 4 -28 -8
4 -8 0 0 -15 10 -17 9 -21 -4 -21 -8 0 -15 -7 -15 -15 0 -8 6 -15 13 -15 11 0
13 -13 8 -63 -1 -5 -5 -5 -11 -2 -5 3 -10 0 -10 -9 0 -8 5 -16 10 -18 10 -3
13 -21 8 -60 -1 -9 -4 -16 -7 -15 -3 1 -6 -2 -6 -8 0 -5 3 -9 8 -7 8 2 8 2 11
-42 1 -21 -3 -30 -18 -34 -16 -4 -17 -7 -4 -16 20 -16 29 -44 15 -50 -8 -3 -7
-5 2 -5 11 -1 10 -4 -4 -15 -18 -13 -15 -53 4 -42 5 4 8 -2 6 -11 -2 -10 -4
-28 -4 -41 -1 -13 -5 -20 -11 -17 -5 3 -10 0 -10 -8 0 -8 6 -17 13 -20 17 -6
15 -46 -2 -57 -10 -6 -11 -12 -1 -30 17 -33 19 -79 3 -73 -7 3 -13 -2 -13 -12
0 -9 4 -14 9 -11 5 3 11 -8 13 -24 3 -17 1 -30 -4 -30 -5 0 -7 -4 -4 -9 4 -5
0 -12 -6 -15 -11 -5 -11 -7 0 -12 6 -3 10 -10 6 -15 -3 -5 -1 -9 4 -9 5 0 7
-13 4 -30 -2 -16 -8 -27 -13 -24 -5 3 -9 -4 -9 -16 0 -12 4 -19 9 -15 5 3 13
0 17 -6 3 -6 0 -15 -7 -20 -10 -6 -10 -9 -2 -9 19 0 3 -30 -16 -30 -12 0 -13
-2 -3 -8 15 -10 31 -61 25 -80 -3 -6 -9 -10 -14 -6 -5 3 -9 1 -9 -5 0 -5 4
-12 9 -15 16 -11 19 -66 3 -75 -9 -5 -12 -15 -9 -25 4 -10 11 -15 15 -12 5 3
8 -9 7 -27 -1 -18 -7 -31 -14 -30 -6 2 -11 -6 -11 -17 0 -11 5 -19 11 -17 7 1
12 -13 13 -35 1 -29 -1 -34 -11 -26 -10 8 -13 5 -13 -10 0 -11 5 -22 10 -24
14 -4 21 -46 9 -53 -5 -4 -7 -11 -4 -16 4 -5 -2 -9 -11 -9 -16 0 -16 -1 -2
-12 19 -16 31 -48 18 -48 -5 0 -6 -7 -3 -17 4 -11 3 -14 -5 -9 -7 4 -12 1 -12
-9 0 -9 4 -14 9 -11 5 3 11 -10 13 -30 3 -24 -1 -38 -10 -43 -9 -5 -12 -15 -9
-25 4 -10 11 -15 15 -12 5 3 8 -9 7 -27 -1 -18 -7 -31 -13 -30 -5 1 -13 -4
-16 -12 -3 -8 0 -14 6 -12 17 3 29 -51 14 -66 -17 -17 -20 -29 -8 -36 10 -6
16 -33 13 -58 0 -7 -8 -13 -16 -13 -9 0 -12 -6 -9 -15 4 -8 11 -15 18 -15 6 0
11 -13 11 -29 1 -16 -2 -28 -6 -25 -13 8 -20 -31 -7 -41 15 -11 19 -65 5 -62
-5 1 -12 -4 -14 -10 -3 -7 0 -13 7 -13 6 0 8 -4 5 -10 -3 -5 0 -10 7 -10 9 0
9 -3 -2 -10 -8 -5 -10 -10 -3 -10 6 0 9 -9 6 -20 -3 -11 -9 -18 -13 -15 -4 3
-10 -2 -14 -10 -3 -8 0 -14 6 -12 17 3 29 -51 14 -66 -17 -17 -20 -29 -8 -36
10 -6 16 -33 13 -58 0 -7 -8 -13 -16 -13 -9 0 -12 -6 -9 -15 4 -8 11 -15 18
-15 6 0 11 -13 11 -29 1 -16 -2 -28 -6 -25 -13 8 -20 -31 -7 -41 15 -11 19
-65 5 -62 -5 1 -12 -4 -14 -10 -3 -7 0 -13 7 -13 6 0 8 -4 5 -10 -3 -5 0 -10
7 -10 9 0 9 -3 -2 -10 -8 -5 -10 -10 -3 -10 6 0 9 -9 6 -20 -3 -11 -9 -18 -13
-15 -4 3 -10 -2 -14 -10 -3 -8 0 -14 6 -12 6 1 14 -10 19 -26 5 -20 3 -32 -9
-44 -18 -18 -19 -23 -4 -32 6 -3 12 -21 15 -39 3 -18 1 -30 -4 -26 -5 3 -9 0
-9 -6 0 -6 -4 -8 -10 -5 -6 3 -7 -1 -4 -9 3 -9 11 -16 18 -16 16 0 13 -50 -4
-60 -10 -6 -11 -12 -3 -22 19 -23 22 -68 5 -77 -9 -5 -13 -15 -9 -25 4 -10 11
-15 15 -12 5 3 8 -9 7 -27 -1 -18 -7 -31 -14 -30 -6 2 -11 -6 -11 -17 0 -11 5
-19 11 -17 7 1 12 -13 13 -35 1 -29 -1 -34 -11 -26 -10 8 -13 5 -13 -10 0 -11
5 -22 10 -24 14 -4 21 -46 9 -53 -5 -4 -7 -11 -4 -16 4 -5 -2 -9 -11 -9 -16 0
-16 -1 -2 -12 19 -16 31 -48 18 -48 -5 0 -6 -7 -3 -17 4 -11 3 -14 -5 -9 -7 4
-12 1 -12 -9 0 -9 4 -14 9 -11 5 3 11 -10 13 -30 3 -24 -1 -38 -10 -43 -9 -5
-12 -15 -9 -25 4 -10 11 -15 15 -12 19 12 6 -50 -13 -62 -18 -12 -18 -13 -1
-7 17 5 17 4 5 -12 -8 -9 -9 -14 -2 -10 7 4 13 0 15 -10 6 -27 -3 -64 -13 -57
-15 9 -10 -16 6 -32 17 -18 20 -38 4 -28 -8 4 -8 0 0 -15 10 -17 9 -21 -4 -21
-8 0 -15 -7 -15 -15 0 -8 6 -15 13 -15 11 0 13 -13 8 -63 -1 -5 -5 -5 -11 -2
-5 3 -10 0 -10 -9 0 -8 5 -16 10 -18 15 -5 14 -79 -1 -75 -4 1 -7 -2 -7 -8 0
-5 4 -9 9 -8 5 2 9 0 10 -5 6 -54 4 -65 -15 -70 -16 -4 -17 -7 -4 -16 20 -16
29 -44 15 -50 -8 -3 -7 -5 2 -5 11 -1 10 -4 -4 -15 -18 -13 -15 -53 4 -42 5 4
8 -2 6 -11 -2 -10 -4 -28 -4 -41 -1 -13 -5 -20 -11 -17 -6 3 -10 0 -10 -8 0
-8 6 -17 13 -20 17 -6 15 -46 -2 -57 -10 -6 -11 -12 -1 -30 17 -33 19 -79 3
-73 -7 3 -13 -2 -13 -12 0 -9 4 -14 9 -11 5 3 11 -8 13 -24 3 -17 1 -30 -4
-30 -5 0 -7 -4 -4 -9 4 -5 0 -12 -6 -15 -11 -5 -11 -7 0 -12 6 -3 10 -10 6
-15 -3 -5 -1 -9 4 -9 5 0 7 -13 4 -30 -2 -16 -8 -27 -13 -24 -5 3 -9 -4 -9
-16 0 -12 4 -19 9 -15 5 3 13 0 17 -6 3 -6 0 -15 -7 -20 -10 -6 -10 -9 -2 -9
19 0 3 -30 -16 -30 -12 0 -13 -2 -3 -8 15 -10 31 -61 25 -80 -3 -6 -9 -10 -14
-6 -12 7 -11 -3 2 -28 13 -25 19 -79 7 -72 -20 13 -26 -9 -7 -25 24 -19 24
-18 -35 -22 -14 -1 -27 -8 -31 -17 -5 -13 -8 -12 -19 4 -8 10 -18 16 -22 12
-4 -4 -13 -3 -20 3 -10 9 -15 7 -20 -4 -3 -9 -12 -18 -20 -21 -8 -3 -13 -2
-10 3 3 4 -5 13 -19 19 -19 9 -28 8 -47 -7 -21 -17 -24 -18 -38 -2 -18 19 -40
25 -40 10 0 -5 -5 -7 -10 -4 -6 3 -13 -1 -16 -9 -5 -12 -10 -13 -24 -4 -10 7
-17 15 -14 19 2 4 -10 3 -28 -2 -46 -15 -63 -16 -61 -4 1 7 -12 9 -33 7 -18
-2 -32 -8 -29 -12 3 -4 -1 -10 -9 -13 -8 -3 -17 1 -20 10 -4 9 -14 13 -26 10
-11 -3 -20 -1 -20 4 0 4 -6 6 -14 3 -9 -4 -13 -15 -10 -31 3 -18 1 -23 -8 -17
-10 6 -10 4 -2 -7 12 -17 12 -118 0 -138 -6 -10 -5 -12 2 -7 7 4 12 1 12 -8 0
-8 -5 -18 -10 -21 -7 -4 -7 -11 -2 -18 5 -7 7 -25 5 -40 -3 -20 0 -27 7 -22 8
5 8 1 0 -12 -10 -15 -23 -19 -59 -18 -25 1 -52 -3 -60 -9 -9 -7 -12 -7 -9 -1
5 8 -135 13 -184 6 -5 -1 -8 -584 -8 -1297 0 -1228 1 -1295 18 -1293 36 3 63
-1 58 -10 -3 -5 1 -11 9 -15 8 -3 14 0 12 6 -3 17 61 28 67 12 6 -16 33 -19
38 -5 3 10 22 14 51 12 10 0 15 -6 12 -11 -3 -6 1 -10 9 -10 8 0 20 8 25 18 6
9 11 13 11 7 0 -5 3 -27 6 -47 4 -25 2 -38 -6 -38 -6 0 -8 -5 -4 -12 12 -19
13 -149 2 -142 -6 4 -6 -1 0 -12 6 -11 9 -34 7 -51 l-3 -33 4379 0 c2409 0
4379 3 4380 8 6 49 5 82 -3 82 -5 0 -6 6 -2 12 12 19 13 148 1 148 -5 0 -5 5
2 13 8 10 7 17 -2 27 -10 10 -9 11 2 5 10 -6 13 -4 9 7 -4 8 -2 21 3 29 7 11
10 9 16 -10 5 -21 8 -22 17 -8 15 19 88 28 85 10 -3 -21 2 -25 14 -9 16 21 67
29 67 10 0 -8 6 -11 17 -7 12 5 14 3 8 -8 -4 -8 2 -3 15 9 18 19 24 21 31 10
7 -10 9 -10 9 0 0 7 5 10 10 7 17 -11 46 4 46 24 0 13 -6 18 -18 16 -10 -2
-18 0 -18 6 0 5 5 9 11 9 5 0 8 4 5 9 -4 5 -2 11 4 13 5 1 11 17 14 35 2 22
-1 30 -9 26 -21 -8 -25 13 -7 33 19 22 22 51 6 62 -12 8 -15 44 -3 36 4 -2 10
0 14 6 3 5 1 10 -6 10 -8 0 -8 4 1 15 10 12 10 15 0 15 -17 0 -4 13 15 16 8 1
15 -4 15 -12 0 -17 16 -18 26 -2 5 7 3 8 -6 3 -9 -5 -11 -4 -6 4 4 6 13 8 19
4 17 -11 30 -11 46 1 11 8 13 8 8 0 -4 -7 0 -14 8 -18 9 -3 15 0 15 8 0 7 7
13 15 13 8 0 12 -4 10 -8 -3 -4 1 -9 9 -12 8 -3 17 1 20 9 5 14 27 20 25 7 -3
-21 3 -23 18 -8 15 16 18 16 28 1 7 -9 15 -13 18 -9 12 11 8 58 -5 72 -11 11
-10 12 1 6 11 -6 13 -2 9 19 -3 14 -1 26 4 26 5 0 6 5 3 10 -11 18 -12 110 0
110 5 0 3 6 -6 13 -15 11 -15 14 -1 27 10 9 11 15 4 18 -6 2 -8 10 -5 18 5 13
9 12 32 -2 14 -9 23 -13 19 -9 -13 14 16 34 35 24 12 -7 17 -6 17 3 0 7 7 2
16 -10 l16 -23 15 21 c12 17 18 19 29 9 11 -9 14 -9 14 0 0 7 10 2 22 -9 l22
-21 9 23 c6 15 11 18 14 10 4 -10 8 -10 19 -1 11 9 15 8 20 -5 8 -20 44 -21
44 -1 0 8 -6 15 -12 15 -8 0 -9 3 -3 8 11 8 13 111 2 128 -3 6 -3 14 0 18 10
10 11 140 2 146 -4 3 -4 11 0 19 6 10 12 9 26 -6 13 -13 20 -14 23 -5 4 14 32
16 32 2 0 -5 7 -7 16 -3 9 3 13 12 9 22 -5 11 -1 10 13 -4 11 -11 17 -24 14
-29 -3 -5 0 -6 7 -2 6 4 9 11 6 16 -3 4 1 10 9 13 8 3 17 -2 21 -11 6 -15 8
-15 21 2 12 18 19 15 15 -6 0 -5 3 -8 9 -8 5 0 10 5 10 11 0 6 7 9 15 5 8 -3
15 0 16 7 0 7 4 4 8 -7 7 -17 8 -17 24 -2 15 15 21 14 19 -5 -1 -3 5 -6 13 -6
12 0 14 194 14 1308 0 952 -3 1310 -11 1315 -7 4 -8 3 -4 -4 3 -6 -3 -16 -15
-22 -12 -7 -19 -8 -15 -2 3 5 -1 13 -10 16 -8 3 -13 2 -10 -3 3 -5 -1 -11 -9
-15 -8 -3 -15 -1 -15 3 0 5 -7 12 -16 15 -8 3 -12 2 -9 -4 3 -6 -3 -10 -14
-10 -12 0 -21 4 -21 10 0 5 -7 7 -15 4 -8 -4 -12 -10 -9 -15 3 -5 0 -9 -5 -9
-6 0 -11 7 -11 15 0 8 -7 15 -16 15 -8 0 -13 -4 -9 -9 3 -5 1 -12 -5 -16 -5
-3 -10 -1 -10 5 0 6 -4 8 -10 5 -5 -3 -10 -1 -10 4 0 6 -5 11 -11 11 -5 0 -7
-4 -4 -10 3 -5 -1 -10 -9 -10 -9 0 -16 6 -16 13 -1 7 -5 6 -13 -5 -14 -18 -45
-8 -33 10 3 6 2 13 -4 17 -6 4 -7 12 -3 18 12 20 12 147 -1 140 -6 -4 -5 0 2
9 9 11 10 18 2 23 -6 3 -7 12 -3 18 12 18 10 71 -2 83 -8 8 -17 9 -28 2 -9 -5
-17 -5 -17 0 0 5 -7 9 -15 9 -8 0 -15 -3 -15 -6 0 -3 -11 -6 -25 -6 -14 0 -25
5 -25 10 0 6 -5 3 -10 -5 -5 -8 -10 -10 -10 -5 0 6 -11 10 -25 10 -14 0 -25
-4 -25 -8 0 -5 -5 -5 -11 -2 -15 10 -88 12 -82 3 2 -5 -1 -8 -6 -8 -6 0 -11 3
-11 8 0 4 -11 7 -25 7 -14 0 -25 -3 -25 -6 0 -3 -7 -6 -15 -6 -8 0 -15 4 -15
9 0 5 -9 4 -20 -2 -14 -8 -20 -8 -20 0 0 8 -6 8 -20 0 -14 -8 -20 -8 -20 0 0
8 -6 8 -20 0 -13 -7 -20 -7 -20 -1 0 7 -9 7 -25 1 -16 -6 -26 -6 -31 1 -4 7
-10 7 -18 0 -10 -8 -18 -5 -31 9 -12 13 -14 20 -5 20 10 0 10 3 0 15 -7 8 -8
15 -3 15 5 0 9 9 9 19 0 11 -4 17 -9 14 -5 -3 -13 1 -18 8 -11 17 -11 29 -1
28 32 -5 38 28 10 61 -14 16 -15 19 -2 24 9 3 12 10 9 16 -3 5 -1 10 6 10 8 0
8 4 -1 15 -7 8 -9 15 -4 15 5 0 0 7 -10 15 -19 14 -18 15 5 24 13 5 18 10 11
10 -7 1 -10 5 -7 11 3 5 8 19 10 31 3 15 0 19 -11 15 -8 -3 -13 -2 -9 3 3 5
-1 12 -7 14 -10 4 -10 6 0 6 7 1 10 5 7 11 -3 6 -2 10 3 10 19 0 19 48 0 61
-21 15 -24 30 -5 27 6 -2 11 5 11 15 -1 9 3 17 8 17 5 0 0 12 -12 28 -19 23
-20 27 -6 30 9 2 14 8 11 13 -4 5 -2 9 3 9 17 0 8 35 -13 47 -14 9 -16 12 -5
13 13 0 13 1 0 10 -13 8 -13 10 1 10 9 0 19 7 23 15 3 8 1 15 -3 15 -5 0 -7 9
-4 20 3 11 0 20 -6 20 -17 0 -13 30 4 36 12 5 13 10 4 20 -9 11 -8 14 2 14 8
0 5 6 -7 15 -10 8 -14 15 -9 15 6 0 3 5 -5 10 -13 8 -13 10 1 10 25 0 30 55 7
71 -21 15 -24 30 -5 27 6 -2 11 5 11 15 -1 9 3 17 8 17 5 0 0 12 -11 26 -21
27 -27 45 -13 43 32 -5 38 28 10 61 -14 16 -15 19 -2 24 9 3 12 10 9 16 -3 5
-1 10 6 10 8 0 8 4 -1 15 -7 8 -9 15 -4 15 5 0 0 7 -10 15 -19 14 -18 15 5 24
13 5 18 10 11 10 -7 1 -10 5 -7 11 3 5 8 19 10 31 3 15 0 19 -11 15 -8 -3 -13
-2 -9 3 3 5 -1 12 -7 14 -10 4 -10 6 0 6 7 1 10 6 7 11 -3 6 -2 10 3 10 19 0
19 48 0 61 -21 15 -24 30 -5 27 6 -2 11 5 11 15 -1 9 3 17 8 17 5 0 0 12 -12
28 -19 23 -20 27 -6 30 9 2 14 8 11 13 -4 5 -2 9 3 9 17 0 8 35 -13 47 -14 9
-16 12 -5 13 13 0 13 1 0 10 -13 8 -13 10 1 10 9 0 19 7 23 15 3 8 1 15 -3 15
-5 0 -7 9 -4 20 3 11 0 20 -6 20 -17 0 -13 30 4 36 12 5 13 10 4 20 -9 11 -8
14 2 14 8 0 5 6 -7 15 -10 8 -14 15 -9 15 6 0 3 5 -5 10 -13 8 -13 10 1 10 25
0 30 55 7 71 -21 15 -24 30 -5 27 6 -2 11 5 11 15 -1 9 3 17 8 17 5 0 0 12
-11 26 -21 27 -27 45 -13 43 32 -5 38 28 10 61 -14 16 -15 19 -2 24 9 3 12 10
9 16 -3 5 -1 10 6 10 8 0 8 4 -1 15 -7 8 -9 15 -4 15 5 0 0 7 -10 15 -19 14
-18 15 5 24 13 5 18 10 11 10 -7 1 -10 5 -7 11 3 5 8 19 10 31 3 15 0 19 -11
15 -8 -3 -13 -2 -9 3 3 5 -1 12 -7 14 -10 4 -10 6 0 6 7 1 10 6 7 11 -3 6 -2
10 3 10 19 0 19 48 0 61 -21 15 -24 30 -5 27 6 -2 11 5 11 15 -1 9 3 17 8 17
5 0 0 12 -12 28 -19 23 -20 27 -6 30 9 2 14 8 11 13 -4 5 -2 9 3 9 17 0 8 35
-13 47 -14 9 -16 12 -5 13 13 0 13 1 0 10 -13 8 -13 10 1 10 9 0 19 7 23 15 3
8 1 15 -3 15 -5 0 -7 9 -4 20 3 11 0 20 -6 20 -17 0 -13 30 4 36 12 5 13 10 4
20 -9 11 -8 14 2 14 8 0 5 6 -7 15 -10 8 -14 15 -9 15 6 0 3 5 -5 10 -13 8
-13 10 1 10 25 0 30 55 7 71 -21 15 -24 30 -5 27 6 -2 11 5 11 15 -1 9 3 17 8
17 5 0 0 12 -11 26 -21 27 -27 45 -13 43 32 -5 38 28 10 61 -14 16 -15 19 -2
24 9 3 12 10 9 16 -3 5 -1 10 6 10 8 0 8 4 -1 15 -7 8 -9 15 -4 15 5 0 0 7
-10 15 -19 14 -18 15 5 24 13 5 18 10 11 10 -7 1 -10 5 -7 11 3 5 8 19 10 31
3 15 0 19 -11 15 -8 -3 -13 -2 -9 3 3 5 -1 12 -7 14 -10 4 -10 6 0 6 7 1 10 6
7 11 -3 6 -2 10 3 10 19 0 19 48 0 61 -21 15 -24 30 -5 27 6 -2 11 5 11 15 -1
9 3 17 8 17 5 0 0 12 -12 28 -19 23 -20 27 -6 30 9 2 14 8 11 13 -4 5 -2 9 3
9 17 0 8 35 -13 47 -14 9 -16 12 -5 13 13 0 13 1 0 10 -13 8 -13 10 1 10 9 0
19 7 23 15 3 8 1 15 -3 15 -5 0 -7 9 -4 20 3 11 0 20 -6 20 -17 0 -13 30 4 36
12 5 13 10 4 20 -9 11 -8 14 2 14 8 0 5 6 -7 15 -10 8 -14 15 -9 15 6 0 3 5
-5 10 -13 8 -13 10 1 10 25 0 30 55 7 71 -21 15 -24 30 -5 27 6 -2 11 5 11 15
-1 9 3 17 8 17 5 0 0 12 -11 26 -21 27 -27 45 -13 43 32 -5 38 28 10 61 -14
16 -15 19 -2 24 9 3 12 10 9 16 -3 5 -1 10 6 10 8 0 8 4 -1 15 -7 8 -9 15 -4
15 5 0 0 7 -10 15 -19 14 -18 15 5 24 13 5 18 10 11 10 -7 1 -10 5 -7 11 3 5
8 19 10 31 3 15 0 19 -11 15 -8 -3 -13 -2 -9 3 3 5 -1 12 -7 14 -10 4 -10 6 0
6 7 1 10 6 7 11 -3 6 -2 10 3 10 19 0 19 48 0 61 -21 15 -24 30 -5 27 6 -2 11
5 11 15 -1 9 3 17 8 17 5 0 0 12 -12 28 -19 23 -20 27 -6 30 9 2 14 8 11 13
-4 5 -2 9 3 9 17 0 8 35 -13 47 -14 9 -16 12 -5 13 13 0 13 1 0 10 -13 8 -13
10 1 10 9 0 19 7 23 15 3 8 1 15 -3 15 -5 0 -7 9 -4 20 3 11 0 20 -6 20 -17 0
-13 30 4 36 12 5 13 10 4 20 -9 11 -8 14 2 14 8 0 5 6 -7 15 -10 8 -14 15 -9
15 6 0 3 5 -5 10 -13 8 -13 10 1 10 25 0 30 55 7 71 -21 15 -24 30 -5 27 6 -2
11 5 11 15 -1 9 3 17 8 17 5 0 0 12 -11 26 -21 27 -27 45 -13 43 32 -5 38 28
10 61 -14 16 -15 19 -2 24 9 3 12 10 9 16 -3 5 -1 10 6 10 8 0 8 4 -1 15 -7 8
-9 15 -4 15 5 0 0 7 -10 15 -19 14 -18 15 5 24 13 5 18 10 11 10 -7 1 -10 5
-7 11 3 5 8 19 10 31 3 15 0 19 -11 15 -8 -3 -13 -2 -9 3 3 5 -1 12 -7 14 -10
4 -10 6 0 6 7 1 10 6 7 11 -3 6 -2 10 3 10 19 0 19 48 0 61 -21 15 -24 30 -5
27 6 -2 11 5 11 15 -1 9 3 17 8 17 5 0 0 12 -12 28 -19 23 -20 27 -6 30 9 2
14 8 11 13 -4 5 -2 9 3 9 17 0 8 35 -13 47 -14 9 -16 12 -5 13 13 0 13 1 0 10
-13 8 -13 10 1 10 9 0 19 7 23 15 3 8 1 15 -3 15 -5 0 -7 9 -4 20 3 11 0 20
-6 20 -17 0 -13 30 4 36 12 5 13 10 4 20 -9 11 -8 14 2 14 8 0 5 6 -7 15 -10
8 -14 15 -9 15 6 0 3 5 -5 10 -13 8 -13 10 1 10 25 0 30 55 7 71 -18 14 -26
35 -9 24 6 -3 15 4 21 15 9 17 7 22 -12 29 -13 5 -30 5 -39 0 -9 -4 -18 -6
-21 -4 -2 2 -25 6 -51 9 -31 3 -45 1 -40 -7 4 -6 1 -7 -7 -2 -16 10 -108 12
-123 3 -6 -4 -18 -3 -28 2 -13 7 -16 22 -14 65 1 30 -2 55 -7 55 -5 0 -6 6 -2
12 13 21 13 148 0 141 -6 -4 -6 0 1 9 7 8 10 18 6 21 -3 4 -1540 7 -3414 7
-3106 0 -3408 -1 -3402 -16z"/>
</g>
</svg>
